<svg xmlns="http://www.w3.org/2000/svg" shape-rendering="geometricPrecision" text-rendering="geometricPrecision" image-rendering="optimizeQuality" fill-rule="evenodd" clip-rule="evenodd" viewBox="0 0 512 493.03"><path fill="#0983E0" fill-rule="nonzero" d="M125.195 0h261.61C455.583 0 512 56.416 512 125.195v242.64c0 68.891-56.304 125.195-125.195 125.195h-261.61C56.416 493.03 0 436.614 0 367.835v-242.64C0 56.326 56.349 0 125.195 0z"/><path fill="#88DFF3" d="M125.195 18.969h261.61c58.432 0 106.225 47.816 106.225 106.226v242.64c0 58.409-47.816 106.225-106.225 106.225h-261.61c-58.41 0-106.226-47.793-106.226-106.225v-242.64c0-58.432 47.794-106.226 106.226-106.226z"/><path fill="#A3EDFD" d="M141.365 28.465h223.536c58.432 0 111.937 48.466 111.937 106.226v223.671c0 57.759-54.177 106.225-111.937 106.225H141.365c-57.76 0-106.225-47.794-106.225-106.225V134.691c0-58.432 47.793-106.226 106.225-106.226z"/><path fill="#E8FBFD" d="M309.448 28.465h55.453c58.432 0 111.937 48.376 111.937 106.226v36.729c-17.514-.313-9.765-39.215-22.419-66.695-24.927-54.154-81.589-61.388-144.971-76.26z"/><path fill="#fff" fill-rule="nonzero" d="M313.05 376.999c-7.257 0-13.836-.823-19.593-2.395-6.652-1.838-12.264-4.789-16.642-8.804-4.427-3.943-7.74-8.853-9.893-14.513l-.363-1.089c-1.693-4.886-2.588-10.28-2.588-16.134.581-16.98 1.863-33.815 3.072-50.772h-26.946c-1.669 22.713-1.476 59.988-6.773 80.694-.895 2.588-2.25 4.862-3.701 6.531l-.847.895c-2.249 2.273-4.813 3.676-7.692 4.571a23.54 23.54 0 01-6.941 1.016h-17.828c-7.329 0-13.908-.798-19.665-2.395l-.847-.266c-19.181-5.636-28.566-21.237-28.566-40.274 3.047-65.938 11.731-132.311 13.642-197.789-.024-5.927 2.008-10.813 5.927-14.635l2.031-1.669c3.459-2.563 7.644-3.918 12.554-3.918h17.851c18.021 0 30.841 4.716 38.46 14.126 3.629 4.475 6.289 9.869 7.982 16.109 1.524 5.612 2.298 11.829 2.298 18.529l-2.443 40.734H272.8c1.838-22.834 4.281-46.418 4.837-69.276-.096-11.853 8.902-20.222 20.488-20.222h17.852c18.02 0 30.84 4.716 38.459 14.126 3.629 4.475 6.289 9.869 7.983 16.109 1.523 5.612 2.322 11.829 2.322 18.529-3.024 53.795-3.846 153.404-14.683 199.169-2.951 8.514-10.207 13.013-19.181 13.013H313.05z"/><path fill="#0983E0" fill-rule="nonzero" d="M313.05 361.639c-12.095 0-20.754-2.37-25.931-7.136-5.2-4.764-7.788-11.561-7.788-20.439 0-4.741.435-13.182 1.282-25.277.87-12.118 1.838-25.737 2.927-40.854h-57.715l-6.482 88.844c-.218 1.718-.653 2.975-1.306 3.725s-1.935 1.137-3.894 1.137h-17.828c-12.118 0-20.753-2.37-25.954-7.136-5.176-4.764-7.764-11.561-7.764-20.439 0-4.305.314-11.707.967-22.205a1921.29 1921.29 0 012.588-35.823 4379.761 4379.761 0 003.242-42.475 5384.59 5384.59 0 013.241-42.161c1.088-13.183 1.959-24.745 2.612-34.71.629-9.942.968-16.739.968-20.415 0-3.242 1.717-4.862 5.176-4.862h17.851c13.183 0 22.036 2.805 26.583 8.417 4.548 5.636 6.798 13.957 6.798 24.987 0 1.717-.315 7.837-.968 18.311-.653 10.473-1.5 23.076-2.588 37.782h58.052c.629-9.506 1.331-18.818 2.105-27.889.75-9.071 1.403-17.416 1.935-24.963.556-7.571.968-14.126 1.306-19.617.314-5.515.484-9.578.484-12.166 0-3.242 1.717-4.862 5.176-4.862h17.852c13.182 0 22.035 2.805 26.582 8.417 4.548 5.636 6.822 13.957 6.822 24.987 0 1.064-.17 4.523-.508 10.377-.315 5.829-.799 13.182-1.452 22.036a6051.543 6051.543 0 00-2.104 29.679c-.75 10.909-1.524 22.108-2.274 33.549-.75 11.466-1.5 22.665-2.273 33.574a6018.729 6018.729 0 01-2.105 29.655c-.653 8.877-1.185 16.279-1.62 22.23-.436 5.95-.75 9.554-.968 10.86-.218 1.718-.653 2.975-1.306 3.725s-1.935 1.137-3.894 1.137H313.05z"/></svg>